<?xml version="1.0" encoding="utf-8" standalone="no"?>
<!DOCTYPE svg PUBLIC "-//W3C//DTD SVG 1.1//EN"
  "http://www.w3.org/Graphics/SVG/1.1/DTD/svg11.dtd">
<!-- Created with matplotlib (https://matplotlib.org/) -->
<svg height="360pt" version="1.1" viewBox="0 0 1224 360" width="1224pt" xmlns="http://www.w3.org/2000/svg" xmlns:xlink="http://www.w3.org/1999/xlink">
 <defs>
  <style type="text/css">
*{stroke-linecap:butt;stroke-linejoin:round;}
  </style>
 </defs>
 <g id="figure_1">
  <g id="patch_1">
   <path d="M 0 360 
L 1224 360 
L 1224 0 
L 0 0 
z
" style="fill:#ffffff;"/>
  </g>
  <g id="axes_1">
   <g id="patch_2">
    <path clip-path="url(#pbee2da3100)" d="M 153 309.091304 
L 1101.6 309.091304 
L 1101.6 292.358715 
L 153 292.358715 
z
" style="fill-opacity:0.05098;"/>
   </g>
   <g id="patch_3">
    <path clip-path="url(#pbee2da3100)" d="M 153 267.259831 
L 1101.6 267.259831 
L 1101.6 250.527241 
L 153 250.527241 
z
" style="fill-opacity:0.05098;"/>
   </g>
   <g id="patch_4">
    <path clip-path="url(#pbee2da3100)" d="M 153 225.428357 
L 1101.6 225.428357 
L 1101.6 208.695768 
L 153 208.695768 
z
" style="fill-opacity:0.05098;"/>
   </g>
   <g id="matplotlib.axis_1"/>
   <g id="matplotlib.axis_2">
    <g id="ytick_1"/>
    <g id="ytick_2"/>
    <g id="ytick_3"/>
    <g id="ytick_4"/>
    <g id="ytick_5"/>
    <g id="ytick_6"/>
   </g>
  </g>
  <g id="axes_2">
   <g id="matplotlib.axis_3">
    <g id="ytick_7">
     <g id="line2d_1"/>
     <g id="text_1">
      <!-- Whole Embryo RNA, Replicate 3 -->
      <defs>
       <path d="M 3.328125 72.90625 
L 13.28125 72.90625 
L 28.609375 11.28125 
L 43.890625 72.90625 
L 54.984375 72.90625 
L 70.3125 11.28125 
L 85.59375 72.90625 
L 95.609375 72.90625 
L 77.296875 0 
L 64.890625 0 
L 49.515625 63.28125 
L 33.984375 0 
L 21.578125 0 
z
" id="DejaVuSans-87"/>
       <path d="M 54.890625 33.015625 
L 54.890625 0 
L 45.90625 0 
L 45.90625 32.71875 
Q 45.90625 40.484375 42.875 44.328125 
Q 39.84375 48.1875 33.796875 48.1875 
Q 26.515625 48.1875 22.3125 43.546875 
Q 18.109375 38.921875 18.109375 30.90625 
L 18.109375 0 
L 9.078125 0 
L 9.078125 75.984375 
L 18.109375 75.984375 
L 18.109375 46.1875 
Q 21.34375 51.125 25.703125 53.5625 
Q 30.078125 56 35.796875 56 
Q 45.21875 56 50.046875 50.171875 
Q 54.890625 44.34375 54.890625 33.015625 
z
" id="DejaVuSans-104"/>
       <path d="M 30.609375 48.390625 
Q 23.390625 48.390625 19.1875 42.75 
Q 14.984375 37.109375 14.984375 27.296875 
Q 14.984375 17.484375 19.15625 11.84375 
Q 23.34375 6.203125 30.609375 6.203125 
Q 37.796875 6.203125 41.984375 11.859375 
Q 46.1875 17.53125 46.1875 27.296875 
Q 46.1875 37.015625 41.984375 42.703125 
Q 37.796875 48.390625 30.609375 48.390625 
z
M 30.609375 56 
Q 42.328125 56 49.015625 48.375 
Q 55.71875 40.765625 55.71875 27.296875 
Q 55.71875 13.875 49.015625 6.21875 
Q 42.328125 -1.421875 30.609375 -1.421875 
Q 18.84375 -1.421875 12.171875 6.21875 
Q 5.515625 13.875 5.515625 27.296875 
Q 5.515625 40.765625 12.171875 48.375 
Q 18.84375 56 30.609375 56 
z
" id="DejaVuSans-111"/>
       <path d="M 9.421875 75.984375 
L 18.40625 75.984375 
L 18.40625 0 
L 9.421875 0 
z
" id="DejaVuSans-108"/>
       <path d="M 56.203125 29.59375 
L 56.203125 25.203125 
L 14.890625 25.203125 
Q 15.484375 15.921875 20.484375 11.0625 
Q 25.484375 6.203125 34.421875 6.203125 
Q 39.59375 6.203125 44.453125 7.46875 
Q 49.3125 8.734375 54.109375 11.28125 
L 54.109375 2.78125 
Q 49.265625 0.734375 44.1875 -0.34375 
Q 39.109375 -1.421875 33.890625 -1.421875 
Q 20.796875 -1.421875 13.15625 6.1875 
Q 5.515625 13.8125 5.515625 26.8125 
Q 5.515625 40.234375 12.765625 48.109375 
Q 20.015625 56 32.328125 56 
Q 43.359375 56 49.78125 48.890625 
Q 56.203125 41.796875 56.203125 29.59375 
z
M 47.21875 32.234375 
Q 47.125 39.59375 43.09375 43.984375 
Q 39.0625 48.390625 32.421875 48.390625 
Q 24.90625 48.390625 20.390625 44.140625 
Q 15.875 39.890625 15.1875 32.171875 
z
" id="DejaVuSans-101"/>
       <path id="DejaVuSans-32"/>
       <path d="M 9.8125 72.90625 
L 55.90625 72.90625 
L 55.90625 64.59375 
L 19.671875 64.59375 
L 19.671875 43.015625 
L 54.390625 43.015625 
L 54.390625 34.71875 
L 19.671875 34.71875 
L 19.671875 8.296875 
L 56.78125 8.296875 
L 56.78125 0 
L 9.8125 0 
z
" id="DejaVuSans-69"/>
       <path d="M 52 44.1875 
Q 55.375 50.25 60.0625 53.125 
Q 64.75 56 71.09375 56 
Q 79.640625 56 84.28125 50.015625 
Q 88.921875 44.046875 88.921875 33.015625 
L 88.921875 0 
L 79.890625 0 
L 79.890625 32.71875 
Q 79.890625 40.578125 77.09375 44.375 
Q 74.3125 48.1875 68.609375 48.1875 
Q 61.625 48.1875 57.5625 43.546875 
Q 53.515625 38.921875 53.515625 30.90625 
L 53.515625 0 
L 44.484375 0 
L 44.484375 32.71875 
Q 44.484375 40.625 41.703125 44.40625 
Q 38.921875 48.1875 33.109375 48.1875 
Q 26.21875 48.1875 22.15625 43.53125 
Q 18.109375 38.875 18.109375 30.90625 
L 18.109375 0 
L 9.078125 0 
L 9.078125 54.6875 
L 18.109375 54.6875 
L 18.109375 46.1875 
Q 21.1875 51.21875 25.484375 53.609375 
Q 29.78125 56 35.6875 56 
Q 41.65625 56 45.828125 52.96875 
Q 50 49.953125 52 44.1875 
z
" id="DejaVuSans-109"/>
       <path d="M 48.6875 27.296875 
Q 48.6875 37.203125 44.609375 42.84375 
Q 40.53125 48.484375 33.40625 48.484375 
Q 26.265625 48.484375 22.1875 42.84375 
Q 18.109375 37.203125 18.109375 27.296875 
Q 18.109375 17.390625 22.1875 11.75 
Q 26.265625 6.109375 33.40625 6.109375 
Q 40.53125 6.109375 44.609375 11.75 
Q 48.6875 17.390625 48.6875 27.296875 
z
M 18.109375 46.390625 
Q 20.953125 51.265625 25.265625 53.625 
Q 29.59375 56 35.59375 56 
Q 45.5625 56 51.78125 48.09375 
Q 58.015625 40.1875 58.015625 27.296875 
Q 58.015625 14.40625 51.78125 6.484375 
Q 45.5625 -1.421875 35.59375 -1.421875 
Q 29.59375 -1.421875 25.265625 0.953125 
Q 20.953125 3.328125 18.109375 8.203125 
L 18.109375 0 
L 9.078125 0 
L 9.078125 75.984375 
L 18.109375 75.984375 
z
" id="DejaVuSans-98"/>
       <path d="M 41.109375 46.296875 
Q 39.59375 47.171875 37.8125 47.578125 
Q 36.03125 48 33.890625 48 
Q 26.265625 48 22.1875 43.046875 
Q 18.109375 38.09375 18.109375 28.8125 
L 18.109375 0 
L 9.078125 0 
L 9.078125 54.6875 
L 18.109375 54.6875 
L 18.109375 46.1875 
Q 20.953125 51.171875 25.484375 53.578125 
Q 30.03125 56 36.53125 56 
Q 37.453125 56 38.578125 55.875 
Q 39.703125 55.765625 41.0625 55.515625 
z
" id="DejaVuSans-114"/>
       <path d="M 32.171875 -5.078125 
Q 28.375 -14.84375 24.75 -17.8125 
Q 21.140625 -20.796875 15.09375 -20.796875 
L 7.90625 -20.796875 
L 7.90625 -13.28125 
L 13.1875 -13.28125 
Q 16.890625 -13.28125 18.9375 -11.515625 
Q 21 -9.765625 23.484375 -3.21875 
L 25.09375 0.875 
L 2.984375 54.6875 
L 12.5 54.6875 
L 29.59375 11.921875 
L 46.6875 54.6875 
L 56.203125 54.6875 
z
" id="DejaVuSans-121"/>
       <path d="M 44.390625 34.1875 
Q 47.5625 33.109375 50.5625 29.59375 
Q 53.5625 26.078125 56.59375 19.921875 
L 66.609375 0 
L 56 0 
L 46.6875 18.703125 
Q 43.0625 26.03125 39.671875 28.421875 
Q 36.28125 30.8125 30.421875 30.8125 
L 19.671875 30.8125 
L 19.671875 0 
L 9.8125 0 
L 9.8125 72.90625 
L 32.078125 72.90625 
Q 44.578125 72.90625 50.734375 67.671875 
Q 56.890625 62.453125 56.890625 51.90625 
Q 56.890625 45.015625 53.6875 40.46875 
Q 50.484375 35.9375 44.390625 34.1875 
z
M 19.671875 64.796875 
L 19.671875 38.921875 
L 32.078125 38.921875 
Q 39.203125 38.921875 42.84375 42.21875 
Q 46.484375 45.515625 46.484375 51.90625 
Q 46.484375 58.296875 42.84375 61.546875 
Q 39.203125 64.796875 32.078125 64.796875 
z
" id="DejaVuSans-82"/>
       <path d="M 9.8125 72.90625 
L 23.09375 72.90625 
L 55.421875 11.921875 
L 55.421875 72.90625 
L 64.984375 72.90625 
L 64.984375 0 
L 51.703125 0 
L 19.390625 60.984375 
L 19.390625 0 
L 9.8125 0 
z
" id="DejaVuSans-78"/>
       <path d="M 34.1875 63.1875 
L 20.796875 26.90625 
L 47.609375 26.90625 
z
M 28.609375 72.90625 
L 39.796875 72.90625 
L 67.578125 0 
L 57.328125 0 
L 50.6875 18.703125 
L 17.828125 18.703125 
L 11.1875 0 
L 0.78125 0 
z
" id="DejaVuSans-65"/>
       <path d="M 11.71875 12.40625 
L 22.015625 12.40625 
L 22.015625 4 
L 14.015625 -11.625 
L 7.71875 -11.625 
L 11.71875 4 
z
" id="DejaVuSans-44"/>
       <path d="M 18.109375 8.203125 
L 18.109375 -20.796875 
L 9.078125 -20.796875 
L 9.078125 54.6875 
L 18.109375 54.6875 
L 18.109375 46.390625 
Q 20.953125 51.265625 25.265625 53.625 
Q 29.59375 56 35.59375 56 
Q 45.5625 56 51.78125 48.09375 
Q 58.015625 40.1875 58.015625 27.296875 
Q 58.015625 14.40625 51.78125 6.484375 
Q 45.5625 -1.421875 35.59375 -1.421875 
Q 29.59375 -1.421875 25.265625 0.953125 
Q 20.953125 3.328125 18.109375 8.203125 
z
M 48.6875 27.296875 
Q 48.6875 37.203125 44.609375 42.84375 
Q 40.53125 48.484375 33.40625 48.484375 
Q 26.265625 48.484375 22.1875 42.84375 
Q 18.109375 37.203125 18.109375 27.296875 
Q 18.109375 17.390625 22.1875 11.75 
Q 26.265625 6.109375 33.40625 6.109375 
Q 40.53125 6.109375 44.609375 11.75 
Q 48.6875 17.390625 48.6875 27.296875 
z
" id="DejaVuSans-112"/>
       <path d="M 9.421875 54.6875 
L 18.40625 54.6875 
L 18.40625 0 
L 9.421875 0 
z
M 9.421875 75.984375 
L 18.40625 75.984375 
L 18.40625 64.59375 
L 9.421875 64.59375 
z
" id="DejaVuSans-105"/>
       <path d="M 48.78125 52.59375 
L 48.78125 44.1875 
Q 44.96875 46.296875 41.140625 47.34375 
Q 37.3125 48.390625 33.40625 48.390625 
Q 24.65625 48.390625 19.8125 42.84375 
Q 14.984375 37.3125 14.984375 27.296875 
Q 14.984375 17.28125 19.8125 11.734375 
Q 24.65625 6.203125 33.40625 6.203125 
Q 37.3125 6.203125 41.140625 7.25 
Q 44.96875 8.296875 48.78125 10.40625 
L 48.78125 2.09375 
Q 45.015625 0.34375 40.984375 -0.53125 
Q 36.96875 -1.421875 32.421875 -1.421875 
Q 20.0625 -1.421875 12.78125 6.34375 
Q 5.515625 14.109375 5.515625 27.296875 
Q 5.515625 40.671875 12.859375 48.328125 
Q 20.21875 56 33.015625 56 
Q 37.15625 56 41.109375 55.140625 
Q 45.0625 54.296875 48.78125 52.59375 
z
" id="DejaVuSans-99"/>
       <path d="M 34.28125 27.484375 
Q 23.390625 27.484375 19.1875 25 
Q 14.984375 22.515625 14.984375 16.5 
Q 14.984375 11.71875 18.140625 8.90625 
Q 21.296875 6.109375 26.703125 6.109375 
Q 34.1875 6.109375 38.703125 11.40625 
Q 43.21875 16.703125 43.21875 25.484375 
L 43.21875 27.484375 
z
M 52.203125 31.203125 
L 52.203125 0 
L 43.21875 0 
L 43.21875 8.296875 
Q 40.140625 3.328125 35.546875 0.953125 
Q 30.953125 -1.421875 24.3125 -1.421875 
Q 15.921875 -1.421875 10.953125 3.296875 
Q 6 8.015625 6 15.921875 
Q 6 25.140625 12.171875 29.828125 
Q 18.359375 34.515625 30.609375 34.515625 
L 43.21875 34.515625 
L 43.21875 35.40625 
Q 43.21875 41.609375 39.140625 45 
Q 35.0625 48.390625 27.6875 48.390625 
Q 23 48.390625 18.546875 47.265625 
Q 14.109375 46.140625 10.015625 43.890625 
L 10.015625 52.203125 
Q 14.9375 54.109375 19.578125 55.046875 
Q 24.21875 56 28.609375 56 
Q 40.484375 56 46.34375 49.84375 
Q 52.203125 43.703125 52.203125 31.203125 
z
" id="DejaVuSans-97"/>
       <path d="M 18.3125 70.21875 
L 18.3125 54.6875 
L 36.8125 54.6875 
L 36.8125 47.703125 
L 18.3125 47.703125 
L 18.3125 18.015625 
Q 18.3125 11.328125 20.140625 9.421875 
Q 21.96875 7.515625 27.59375 7.515625 
L 36.8125 7.515625 
L 36.8125 0 
L 27.59375 0 
Q 17.1875 0 13.234375 3.875 
Q 9.28125 7.765625 9.28125 18.015625 
L 9.28125 47.703125 
L 2.6875 47.703125 
L 2.6875 54.6875 
L 9.28125 54.6875 
L 9.28125 70.21875 
z
" id="DejaVuSans-116"/>
       <path d="M 40.578125 39.3125 
Q 47.65625 37.796875 51.625 33 
Q 55.609375 28.21875 55.609375 21.1875 
Q 55.609375 10.40625 48.1875 4.484375 
Q 40.765625 -1.421875 27.09375 -1.421875 
Q 22.515625 -1.421875 17.65625 -0.515625 
Q 12.796875 0.390625 7.625 2.203125 
L 7.625 11.71875 
Q 11.71875 9.328125 16.59375 8.109375 
Q 21.484375 6.890625 26.8125 6.890625 
Q 36.078125 6.890625 40.9375 10.546875 
Q 45.796875 14.203125 45.796875 21.1875 
Q 45.796875 27.640625 41.28125 31.265625 
Q 36.765625 34.90625 28.71875 34.90625 
L 20.21875 34.90625 
L 20.21875 43.015625 
L 29.109375 43.015625 
Q 36.375 43.015625 40.234375 45.921875 
Q 44.09375 48.828125 44.09375 54.296875 
Q 44.09375 59.90625 40.109375 62.90625 
Q 36.140625 65.921875 28.71875 65.921875 
Q 24.65625 65.921875 20.015625 65.03125 
Q 15.375 64.15625 9.8125 62.3125 
L 9.8125 71.09375 
Q 15.4375 72.65625 20.34375 73.4375 
Q 25.25 74.21875 29.59375 74.21875 
Q 40.828125 74.21875 47.359375 69.109375 
Q 53.90625 64.015625 53.90625 55.328125 
Q 53.90625 49.265625 50.4375 45.09375 
Q 46.96875 40.921875 40.578125 39.3125 
z
" id="DejaVuSans-51"/>
      </defs>
      <g transform="translate(375.760249 304.524228)scale(0.1 -0.1)">
       <use xlink:href="#DejaVuSans-87"/>
       <use x="98.876953" xlink:href="#DejaVuSans-104"/>
       <use x="162.255859" xlink:href="#DejaVuSans-111"/>
       <use x="223.4375" xlink:href="#DejaVuSans-108"/>
       <use x="251.220703" xlink:href="#DejaVuSans-101"/>
       <use x="312.744141" xlink:href="#DejaVuSans-32"/>
       <use x="344.53125" xlink:href="#DejaVuSans-69"/>
       <use x="407.714844" xlink:href="#DejaVuSans-109"/>
       <use x="505.126953" xlink:href="#DejaVuSans-98"/>
       <use x="568.603516" xlink:href="#DejaVuSans-114"/>
       <use x="609.716797" xlink:href="#DejaVuSans-121"/>
       <use x="668.896484" xlink:href="#DejaVuSans-111"/>
       <use x="730.078125" xlink:href="#DejaVuSans-32"/>
       <use x="761.865234" xlink:href="#DejaVuSans-82"/>
       <use x="831.347656" xlink:href="#DejaVuSans-78"/>
       <use x="906.152344" xlink:href="#DejaVuSans-65"/>
       <use x="974.560547" xlink:href="#DejaVuSans-44"/>
       <use x="1006.347656" xlink:href="#DejaVuSans-32"/>
       <use x="1038.134766" xlink:href="#DejaVuSans-82"/>
       <use x="1103.117188" xlink:href="#DejaVuSans-101"/>
       <use x="1164.640625" xlink:href="#DejaVuSans-112"/>
       <use x="1228.117188" xlink:href="#DejaVuSans-108"/>
       <use x="1255.900391" xlink:href="#DejaVuSans-105"/>
       <use x="1283.683594" xlink:href="#DejaVuSans-99"/>
       <use x="1338.664062" xlink:href="#DejaVuSans-97"/>
       <use x="1399.943359" xlink:href="#DejaVuSans-116"/>
       <use x="1439.152344" xlink:href="#DejaVuSans-101"/>
       <use x="1500.675781" xlink:href="#DejaVuSans-32"/>
       <use x="1532.462891" xlink:href="#DejaVuSans-51"/>
      </g>
     </g>
    </g>
    <g id="ytick_8">
     <g id="line2d_2"/>
     <g id="text_2">
      <!-- Whole Embryo RNA, Replicate 1 -->
      <defs>
       <path d="M 12.40625 8.296875 
L 28.515625 8.296875 
L 28.515625 63.921875 
L 10.984375 60.40625 
L 10.984375 69.390625 
L 28.421875 72.90625 
L 38.28125 72.90625 
L 38.28125 8.296875 
L 54.390625 8.296875 
L 54.390625 0 
L 12.40625 0 
z
" id="DejaVuSans-49"/>
      </defs>
      <g transform="translate(375.760249 283.608492)scale(0.1 -0.1)">
       <use xlink:href="#DejaVuSans-87"/>
       <use x="98.876953" xlink:href="#DejaVuSans-104"/>
       <use x="162.255859" xlink:href="#DejaVuSans-111"/>
       <use x="223.4375" xlink:href="#DejaVuSans-108"/>
       <use x="251.220703" xlink:href="#DejaVuSans-101"/>
       <use x="312.744141" xlink:href="#DejaVuSans-32"/>
       <use x="344.53125" xlink:href="#DejaVuSans-69"/>
       <use x="407.714844" xlink:href="#DejaVuSans-109"/>
       <use x="505.126953" xlink:href="#DejaVuSans-98"/>
       <use x="568.603516" xlink:href="#DejaVuSans-114"/>
       <use x="609.716797" xlink:href="#DejaVuSans-121"/>
       <use x="668.896484" xlink:href="#DejaVuSans-111"/>
       <use x="730.078125" xlink:href="#DejaVuSans-32"/>
       <use x="761.865234" xlink:href="#DejaVuSans-82"/>
       <use x="831.347656" xlink:href="#DejaVuSans-78"/>
       <use x="906.152344" xlink:href="#DejaVuSans-65"/>
       <use x="974.560547" xlink:href="#DejaVuSans-44"/>
       <use x="1006.347656" xlink:href="#DejaVuSans-32"/>
       <use x="1038.134766" xlink:href="#DejaVuSans-82"/>
       <use x="1103.117188" xlink:href="#DejaVuSans-101"/>
       <use x="1164.640625" xlink:href="#DejaVuSans-112"/>
       <use x="1228.117188" xlink:href="#DejaVuSans-108"/>
       <use x="1255.900391" xlink:href="#DejaVuSans-105"/>
       <use x="1283.683594" xlink:href="#DejaVuSans-99"/>
       <use x="1338.664062" xlink:href="#DejaVuSans-97"/>
       <use x="1399.943359" xlink:href="#DejaVuSans-116"/>
       <use x="1439.152344" xlink:href="#DejaVuSans-101"/>
       <use x="1500.675781" xlink:href="#DejaVuSans-32"/>
       <use x="1532.462891" xlink:href="#DejaVuSans-49"/>
      </g>
     </g>
    </g>
    <g id="ytick_9">
     <g id="line2d_3"/>
     <g id="text_3">
      <!-- Whole Embryo RNA, Replicate 2 -->
      <defs>
       <path d="M 19.1875 8.296875 
L 53.609375 8.296875 
L 53.609375 0 
L 7.328125 0 
L 7.328125 8.296875 
Q 12.9375 14.109375 22.625 23.890625 
Q 32.328125 33.6875 34.8125 36.53125 
Q 39.546875 41.84375 41.421875 45.53125 
Q 43.3125 49.21875 43.3125 52.78125 
Q 43.3125 58.59375 39.234375 62.25 
Q 35.15625 65.921875 28.609375 65.921875 
Q 23.96875 65.921875 18.8125 64.3125 
Q 13.671875 62.703125 7.8125 59.421875 
L 7.8125 69.390625 
Q 13.765625 71.78125 18.9375 73 
Q 24.125 74.21875 28.421875 74.21875 
Q 39.75 74.21875 46.484375 68.546875 
Q 53.21875 62.890625 53.21875 53.421875 
Q 53.21875 48.921875 51.53125 44.890625 
Q 49.859375 40.875 45.40625 35.40625 
Q 44.1875 33.984375 37.640625 27.21875 
Q 31.109375 20.453125 19.1875 8.296875 
z
" id="DejaVuSans-50"/>
      </defs>
      <g transform="translate(375.760249 262.692755)scale(0.1 -0.1)">
       <use xlink:href="#DejaVuSans-87"/>
       <use x="98.876953" xlink:href="#DejaVuSans-104"/>
       <use x="162.255859" xlink:href="#DejaVuSans-111"/>
       <use x="223.4375" xlink:href="#DejaVuSans-108"/>
       <use x="251.220703" xlink:href="#DejaVuSans-101"/>
       <use x="312.744141" xlink:href="#DejaVuSans-32"/>
       <use x="344.53125" xlink:href="#DejaVuSans-69"/>
       <use x="407.714844" xlink:href="#DejaVuSans-109"/>
       <use x="505.126953" xlink:href="#DejaVuSans-98"/>
       <use x="568.603516" xlink:href="#DejaVuSans-114"/>
       <use x="609.716797" xlink:href="#DejaVuSans-121"/>
       <use x="668.896484" xlink:href="#DejaVuSans-111"/>
       <use x="730.078125" xlink:href="#DejaVuSans-32"/>
       <use x="761.865234" xlink:href="#DejaVuSans-82"/>
       <use x="831.347656" xlink:href="#DejaVuSans-78"/>
       <use x="906.152344" xlink:href="#DejaVuSans-65"/>
       <use x="974.560547" xlink:href="#DejaVuSans-44"/>
       <use x="1006.347656" xlink:href="#DejaVuSans-32"/>
       <use x="1038.134766" xlink:href="#DejaVuSans-82"/>
       <use x="1103.117188" xlink:href="#DejaVuSans-101"/>
       <use x="1164.640625" xlink:href="#DejaVuSans-112"/>
       <use x="1228.117188" xlink:href="#DejaVuSans-108"/>
       <use x="1255.900391" xlink:href="#DejaVuSans-105"/>
       <use x="1283.683594" xlink:href="#DejaVuSans-99"/>
       <use x="1338.664062" xlink:href="#DejaVuSans-97"/>
       <use x="1399.943359" xlink:href="#DejaVuSans-116"/>
       <use x="1439.152344" xlink:href="#DejaVuSans-101"/>
       <use x="1500.675781" xlink:href="#DejaVuSans-32"/>
       <use x="1532.462891" xlink:href="#DejaVuSans-50"/>
      </g>
     </g>
    </g>
    <g id="ytick_10">
     <g id="line2d_4"/>
     <g id="text_4">
      <!-- Whole Embryo DNA, Replicate 1 -->
      <defs>
       <path d="M 19.671875 64.796875 
L 19.671875 8.109375 
L 31.59375 8.109375 
Q 46.6875 8.109375 53.6875 14.9375 
Q 60.6875 21.78125 60.6875 36.53125 
Q 60.6875 51.171875 53.6875 57.984375 
Q 46.6875 64.796875 31.59375 64.796875 
z
M 9.8125 72.90625 
L 30.078125 72.90625 
Q 51.265625 72.90625 61.171875 64.09375 
Q 71.09375 55.28125 71.09375 36.53125 
Q 71.09375 17.671875 61.125 8.828125 
Q 51.171875 0 30.078125 0 
L 9.8125 0 
z
" id="DejaVuSans-68"/>
      </defs>
      <g transform="translate(375.008686 241.777018)scale(0.1 -0.1)">
       <use xlink:href="#DejaVuSans-87"/>
       <use x="98.876953" xlink:href="#DejaVuSans-104"/>
       <use x="162.255859" xlink:href="#DejaVuSans-111"/>
       <use x="223.4375" xlink:href="#DejaVuSans-108"/>
       <use x="251.220703" xlink:href="#DejaVuSans-101"/>
       <use x="312.744141" xlink:href="#DejaVuSans-32"/>
       <use x="344.53125" xlink:href="#DejaVuSans-69"/>
       <use x="407.714844" xlink:href="#DejaVuSans-109"/>
       <use x="505.126953" xlink:href="#DejaVuSans-98"/>
       <use x="568.603516" xlink:href="#DejaVuSans-114"/>
       <use x="609.716797" xlink:href="#DejaVuSans-121"/>
       <use x="668.896484" xlink:href="#DejaVuSans-111"/>
       <use x="730.078125" xlink:href="#DejaVuSans-32"/>
       <use x="761.865234" xlink:href="#DejaVuSans-68"/>
       <use x="838.867188" xlink:href="#DejaVuSans-78"/>
       <use x="913.671875" xlink:href="#DejaVuSans-65"/>
       <use x="982.080078" xlink:href="#DejaVuSans-44"/>
       <use x="1013.867188" xlink:href="#DejaVuSans-32"/>
       <use x="1045.654297" xlink:href="#DejaVuSans-82"/>
       <use x="1110.636719" xlink:href="#DejaVuSans-101"/>
       <use x="1172.160156" xlink:href="#DejaVuSans-112"/>
       <use x="1235.636719" xlink:href="#DejaVuSans-108"/>
       <use x="1263.419922" xlink:href="#DejaVuSans-105"/>
       <use x="1291.203125" xlink:href="#DejaVuSans-99"/>
       <use x="1346.183594" xlink:href="#DejaVuSans-97"/>
       <use x="1407.462891" xlink:href="#DejaVuSans-116"/>
       <use x="1446.671875" xlink:href="#DejaVuSans-101"/>
       <use x="1508.195312" xlink:href="#DejaVuSans-32"/>
       <use x="1539.982422" xlink:href="#DejaVuSans-49"/>
      </g>
     </g>
    </g>
    <g id="ytick_11">
     <g id="line2d_5"/>
     <g id="text_5">
      <!-- Whole Embryo DNA, Replicate 3 -->
      <g transform="translate(375.008686 220.861281)scale(0.1 -0.1)">
       <use xlink:href="#DejaVuSans-87"/>
       <use x="98.876953" xlink:href="#DejaVuSans-104"/>
       <use x="162.255859" xlink:href="#DejaVuSans-111"/>
       <use x="223.4375" xlink:href="#DejaVuSans-108"/>
       <use x="251.220703" xlink:href="#DejaVuSans-101"/>
       <use x="312.744141" xlink:href="#DejaVuSans-32"/>
       <use x="344.53125" xlink:href="#DejaVuSans-69"/>
       <use x="407.714844" xlink:href="#DejaVuSans-109"/>
       <use x="505.126953" xlink:href="#DejaVuSans-98"/>
       <use x="568.603516" xlink:href="#DejaVuSans-114"/>
       <use x="609.716797" xlink:href="#DejaVuSans-121"/>
       <use x="668.896484" xlink:href="#DejaVuSans-111"/>
       <use x="730.078125" xlink:href="#DejaVuSans-32"/>
       <use x="761.865234" xlink:href="#DejaVuSans-68"/>
       <use x="838.867188" xlink:href="#DejaVuSans-78"/>
       <use x="913.671875" xlink:href="#DejaVuSans-65"/>
       <use x="982.080078" xlink:href="#DejaVuSans-44"/>
       <use x="1013.867188" xlink:href="#DejaVuSans-32"/>
       <use x="1045.654297" xlink:href="#DejaVuSans-82"/>
       <use x="1110.636719" xlink:href="#DejaVuSans-101"/>
       <use x="1172.160156" xlink:href="#DejaVuSans-112"/>
       <use x="1235.636719" xlink:href="#DejaVuSans-108"/>
       <use x="1263.419922" xlink:href="#DejaVuSans-105"/>
       <use x="1291.203125" xlink:href="#DejaVuSans-99"/>
       <use x="1346.183594" xlink:href="#DejaVuSans-97"/>
       <use x="1407.462891" xlink:href="#DejaVuSans-116"/>
       <use x="1446.671875" xlink:href="#DejaVuSans-101"/>
       <use x="1508.195312" xlink:href="#DejaVuSans-32"/>
       <use x="1539.982422" xlink:href="#DejaVuSans-51"/>
      </g>
     </g>
    </g>
    <g id="ytick_12">
     <g id="line2d_6"/>
     <g id="text_6">
      <!-- Whole Embryo DNA, Replicate 2 -->
      <g transform="translate(375.008686 199.945544)scale(0.1 -0.1)">
       <use xlink:href="#DejaVuSans-87"/>
       <use x="98.876953" xlink:href="#DejaVuSans-104"/>
       <use x="162.255859" xlink:href="#DejaVuSans-111"/>
       <use x="223.4375" xlink:href="#DejaVuSans-108"/>
       <use x="251.220703" xlink:href="#DejaVuSans-101"/>
       <use x="312.744141" xlink:href="#DejaVuSans-32"/>
       <use x="344.53125" xlink:href="#DejaVuSans-69"/>
       <use x="407.714844" xlink:href="#DejaVuSans-109"/>
       <use x="505.126953" xlink:href="#DejaVuSans-98"/>
       <use x="568.603516" xlink:href="#DejaVuSans-114"/>
       <use x="609.716797" xlink:href="#DejaVuSans-121"/>
       <use x="668.896484" xlink:href="#DejaVuSans-111"/>
       <use x="730.078125" xlink:href="#DejaVuSans-32"/>
       <use x="761.865234" xlink:href="#DejaVuSans-68"/>
       <use x="838.867188" xlink:href="#DejaVuSans-78"/>
       <use x="913.671875" xlink:href="#DejaVuSans-65"/>
       <use x="982.080078" xlink:href="#DejaVuSans-44"/>
       <use x="1013.867188" xlink:href="#DejaVuSans-32"/>
       <use x="1045.654297" xlink:href="#DejaVuSans-82"/>
       <use x="1110.636719" xlink:href="#DejaVuSans-101"/>
       <use x="1172.160156" xlink:href="#DejaVuSans-112"/>
       <use x="1235.636719" xlink:href="#DejaVuSans-108"/>
       <use x="1263.419922" xlink:href="#DejaVuSans-105"/>
       <use x="1291.203125" xlink:href="#DejaVuSans-99"/>
       <use x="1346.183594" xlink:href="#DejaVuSans-97"/>
       <use x="1407.462891" xlink:href="#DejaVuSans-116"/>
       <use x="1446.671875" xlink:href="#DejaVuSans-101"/>
       <use x="1508.195312" xlink:href="#DejaVuSans-32"/>
       <use x="1539.982422" xlink:href="#DejaVuSans-50"/>
      </g>
     </g>
    </g>
   </g>
   <g id="LineCollection_1">
    <path clip-path="url(#p0644304c1a)" d="M 585.765254 300.72501 
L 585.765254 279.809273 
" style="fill:none;stroke:#000000;stroke-width:2;"/>
    <path clip-path="url(#p0644304c1a)" d="M 679.55339 300.72501 
L 679.55339 258.893536 
" style="fill:none;stroke:#000000;stroke-width:2;"/>
    <path clip-path="url(#p0644304c1a)" d="M 773.341525 237.977799 
L 773.341525 196.146326 
" style="fill:none;stroke:#000000;stroke-width:2;"/>
    <path clip-path="url(#p0644304c1a)" d="M 867.129661 300.72501 
L 867.129661 196.146326 
" style="fill:none;stroke:#000000;stroke-width:2;"/>
    <path clip-path="url(#p0644304c1a)" d="M 960.917797 300.72501 
L 960.917797 217.062062 
" style="fill:none;stroke:#000000;stroke-width:2;"/>
    <path clip-path="url(#p0644304c1a)" d="M 1054.705932 300.72501 
L 1054.705932 196.146326 
" style="fill:none;stroke:#000000;stroke-width:2;"/>
   </g>
   <g id="PathCollection_1">
    <defs>
     <path d="M 0 7.071068 
C 1.875269 7.071068 3.673985 6.326016 5 5 
C 6.326016 3.673985 7.071068 1.875269 7.071068 0 
C 7.071068 -1.875269 6.326016 -3.673985 5 -5 
C 3.673985 -6.326016 1.875269 -7.071068 0 -7.071068 
C -1.875269 -7.071068 -3.673985 -6.326016 -5 -5 
C -6.326016 -3.673985 -7.071068 -1.875269 -7.071068 0 
C -7.071068 1.875269 -6.326016 3.673985 -5 5 
C -3.673985 6.326016 -1.875269 7.071068 0 7.071068 
z
" id="C0_0_853f673373"/>
    </defs>
    <g clip-path="url(#p0644304c1a)">
     <use style="stroke:#000000;" x="585.765254" xlink:href="#C0_0_853f673373" y="300.72501"/>
    </g>
    <g clip-path="url(#p0644304c1a)">
     <use style="stroke:#000000;" x="585.765254" xlink:href="#C0_0_853f673373" y="279.809273"/>
    </g>
    <g clip-path="url(#p0644304c1a)">
     <use style="fill-opacity:0.180392;" x="585.765254" xlink:href="#C0_0_853f673373" y="258.893536"/>
    </g>
    <g clip-path="url(#p0644304c1a)">
     <use style="fill-opacity:0.180392;" x="585.765254" xlink:href="#C0_0_853f673373" y="237.977799"/>
    </g>
    <g clip-path="url(#p0644304c1a)">
     <use style="fill-opacity:0.180392;" x="585.765254" xlink:href="#C0_0_853f673373" y="217.062062"/>
    </g>
    <g clip-path="url(#p0644304c1a)">
     <use style="fill-opacity:0.180392;" x="585.765254" xlink:href="#C0_0_853f673373" y="196.146326"/>
    </g>
    <g clip-path="url(#p0644304c1a)">
     <use style="stroke:#000000;" x="679.55339" xlink:href="#C0_0_853f673373" y="300.72501"/>
    </g>
    <g clip-path="url(#p0644304c1a)">
     <use style="stroke:#000000;" x="679.55339" xlink:href="#C0_0_853f673373" y="279.809273"/>
    </g>
    <g clip-path="url(#p0644304c1a)">
     <use style="stroke:#000000;" x="679.55339" xlink:href="#C0_0_853f673373" y="258.893536"/>
    </g>
    <g clip-path="url(#p0644304c1a)">
     <use style="fill-opacity:0.180392;" x="679.55339" xlink:href="#C0_0_853f673373" y="237.977799"/>
    </g>
    <g clip-path="url(#p0644304c1a)">
     <use style="fill-opacity:0.180392;" x="679.55339" xlink:href="#C0_0_853f673373" y="217.062062"/>
    </g>
    <g clip-path="url(#p0644304c1a)">
     <use style="fill-opacity:0.180392;" x="679.55339" xlink:href="#C0_0_853f673373" y="196.146326"/>
    </g>
    <g clip-path="url(#p0644304c1a)">
     <use style="fill-opacity:0.180392;" x="773.341525" xlink:href="#C0_0_853f673373" y="300.72501"/>
    </g>
    <g clip-path="url(#p0644304c1a)">
     <use style="fill-opacity:0.180392;" x="773.341525" xlink:href="#C0_0_853f673373" y="279.809273"/>
    </g>
    <g clip-path="url(#p0644304c1a)">
     <use style="fill-opacity:0.180392;" x="773.341525" xlink:href="#C0_0_853f673373" y="258.893536"/>
    </g>
    <g clip-path="url(#p0644304c1a)">
     <use style="stroke:#000000;" x="773.341525" xlink:href="#C0_0_853f673373" y="237.977799"/>
    </g>
    <g clip-path="url(#p0644304c1a)">
     <use style="stroke:#000000;" x="773.341525" xlink:href="#C0_0_853f673373" y="217.062062"/>
    </g>
    <g clip-path="url(#p0644304c1a)">
     <use style="stroke:#000000;" x="773.341525" xlink:href="#C0_0_853f673373" y="196.146326"/>
    </g>
    <g clip-path="url(#p0644304c1a)">
     <use style="stroke:#000000;" x="867.129661" xlink:href="#C0_0_853f673373" y="300.72501"/>
    </g>
    <g clip-path="url(#p0644304c1a)">
     <use style="fill-opacity:0.180392;" x="867.129661" xlink:href="#C0_0_853f673373" y="279.809273"/>
    </g>
    <g clip-path="url(#p0644304c1a)">
     <use style="fill-opacity:0.180392;" x="867.129661" xlink:href="#C0_0_853f673373" y="258.893536"/>
    </g>
    <g clip-path="url(#p0644304c1a)">
     <use style="stroke:#000000;" x="867.129661" xlink:href="#C0_0_853f673373" y="237.977799"/>
    </g>
    <g clip-path="url(#p0644304c1a)">
     <use style="stroke:#000000;" x="867.129661" xlink:href="#C0_0_853f673373" y="217.062062"/>
    </g>
    <g clip-path="url(#p0644304c1a)">
     <use style="stroke:#000000;" x="867.129661" xlink:href="#C0_0_853f673373" y="196.146326"/>
    </g>
    <g clip-path="url(#p0644304c1a)">
     <use style="stroke:#000000;" x="960.917797" xlink:href="#C0_0_853f673373" y="300.72501"/>
    </g>
    <g clip-path="url(#p0644304c1a)">
     <use style="stroke:#000000;" x="960.917797" xlink:href="#C0_0_853f673373" y="279.809273"/>
    </g>
    <g clip-path="url(#p0644304c1a)">
     <use style="stroke:#000000;" x="960.917797" xlink:href="#C0_0_853f673373" y="258.893536"/>
    </g>
    <g clip-path="url(#p0644304c1a)">
     <use style="stroke:#000000;" x="960.917797" xlink:href="#C0_0_853f673373" y="237.977799"/>
    </g>
    <g clip-path="url(#p0644304c1a)">
     <use style="stroke:#000000;" x="960.917797" xlink:href="#C0_0_853f673373" y="217.062062"/>
    </g>
    <g clip-path="url(#p0644304c1a)">
     <use style="fill-opacity:0.180392;" x="960.917797" xlink:href="#C0_0_853f673373" y="196.146326"/>
    </g>
    <g clip-path="url(#p0644304c1a)">
     <use style="stroke:#000000;" x="1054.705932" xlink:href="#C0_0_853f673373" y="300.72501"/>
    </g>
    <g clip-path="url(#p0644304c1a)">
     <use style="stroke:#000000;" x="1054.705932" xlink:href="#C0_0_853f673373" y="279.809273"/>
    </g>
    <g clip-path="url(#p0644304c1a)">
     <use style="stroke:#000000;" x="1054.705932" xlink:href="#C0_0_853f673373" y="258.893536"/>
    </g>
    <g clip-path="url(#p0644304c1a)">
     <use style="stroke:#000000;" x="1054.705932" xlink:href="#C0_0_853f673373" y="237.977799"/>
    </g>
    <g clip-path="url(#p0644304c1a)">
     <use style="stroke:#000000;" x="1054.705932" xlink:href="#C0_0_853f673373" y="217.062062"/>
    </g>
    <g clip-path="url(#p0644304c1a)">
     <use style="stroke:#000000;" x="1054.705932" xlink:href="#C0_0_853f673373" y="196.146326"/>
    </g>
   </g>
  </g>
  <g id="axes_3">
   <g id="patch_5">
    <path clip-path="url(#pfae80223fc)" d="M 329.857627 305.953944 
L 153 305.953944 
L 153 295.496075 
L 329.857627 295.496075 
z
"/>
   </g>
   <g id="patch_6">
    <path clip-path="url(#pfae80223fc)" d="M 329.857627 285.038207 
L 153.279838 285.038207 
L 153.279838 274.580339 
L 329.857627 274.580339 
z
"/>
   </g>
   <g id="patch_7">
    <path clip-path="url(#pfae80223fc)" d="M 329.857627 264.12247 
L 153.559676 264.12247 
L 153.559676 253.664602 
L 329.857627 253.664602 
z
"/>
   </g>
   <g id="patch_8">
    <path clip-path="url(#pfae80223fc)" d="M 329.857627 243.206733 
L 155.79838 243.206733 
L 155.79838 232.748865 
L 329.857627 232.748865 
z
"/>
   </g>
   <g id="patch_9">
    <path clip-path="url(#pfae80223fc)" d="M 329.857627 222.290997 
L 155.79838 222.290997 
L 155.79838 211.833128 
L 329.857627 211.833128 
z
"/>
   </g>
   <g id="patch_10">
    <path clip-path="url(#pfae80223fc)" d="M 329.857627 201.37526 
L 156.078218 201.37526 
L 156.078218 190.917391 
L 329.857627 190.917391 
z
"/>
   </g>
   <g id="matplotlib.axis_4">
    <g id="xtick_1">
     <g id="line2d_7">
      <path clip-path="url(#pfae80223fc)" d="M 329.857627 315 
L 329.857627 185.008696 
" style="fill:none;stroke:#b0b0b0;stroke-linecap:square;stroke-width:0.8;"/>
     </g>
     <g id="line2d_8">
      <defs>
       <path d="M 0 0 
L 0 3.5 
" id="m11ac5a6470" style="stroke:#000000;stroke-width:0.8;"/>
      </defs>
      <g>
       <use style="stroke:#000000;stroke-width:0.8;" x="329.857627" xlink:href="#m11ac5a6470" y="315"/>
      </g>
     </g>
     <g id="text_7">
      <!-- 0 -->
      <defs>
       <path d="M 31.78125 66.40625 
Q 24.171875 66.40625 20.328125 58.90625 
Q 16.5 51.421875 16.5 36.375 
Q 16.5 21.390625 20.328125 13.890625 
Q 24.171875 6.390625 31.78125 6.390625 
Q 39.453125 6.390625 43.28125 13.890625 
Q 47.125 21.390625 47.125 36.375 
Q 47.125 51.421875 43.28125 58.90625 
Q 39.453125 66.40625 31.78125 66.40625 
z
M 31.78125 74.21875 
Q 44.046875 74.21875 50.515625 64.515625 
Q 56.984375 54.828125 56.984375 36.375 
Q 56.984375 17.96875 50.515625 8.265625 
Q 44.046875 -1.421875 31.78125 -1.421875 
Q 19.53125 -1.421875 13.0625 8.265625 
Q 6.59375 17.96875 6.59375 36.375 
Q 6.59375 54.828125 13.0625 64.515625 
Q 19.53125 74.21875 31.78125 74.21875 
z
" id="DejaVuSans-48"/>
      </defs>
      <g transform="translate(326.676377 329.598438)scale(0.1 -0.1)">
       <use xlink:href="#DejaVuSans-48"/>
      </g>
     </g>
    </g>
    <g id="xtick_2">
     <g id="line2d_9">
      <path clip-path="url(#pfae80223fc)" d="M 273.890024 315 
L 273.890024 185.008696 
" style="fill:none;stroke:#b0b0b0;stroke-linecap:square;stroke-width:0.8;"/>
     </g>
     <g id="line2d_10">
      <g>
       <use style="stroke:#000000;stroke-width:0.8;" x="273.890024" xlink:href="#m11ac5a6470" y="315"/>
      </g>
     </g>
     <g id="text_8">
      <!-- 200 -->
      <g transform="translate(264.346274 329.598438)scale(0.1 -0.1)">
       <use xlink:href="#DejaVuSans-50"/>
       <use x="63.623047" xlink:href="#DejaVuSans-48"/>
       <use x="127.246094" xlink:href="#DejaVuSans-48"/>
      </g>
     </g>
    </g>
    <g id="xtick_3">
     <g id="line2d_11">
      <path clip-path="url(#pfae80223fc)" d="M 217.92242 315 
L 217.92242 185.008696 
" style="fill:none;stroke:#b0b0b0;stroke-linecap:square;stroke-width:0.8;"/>
     </g>
     <g id="line2d_12">
      <g>
       <use style="stroke:#000000;stroke-width:0.8;" x="217.92242" xlink:href="#m11ac5a6470" y="315"/>
      </g>
     </g>
     <g id="text_9">
      <!-- 400 -->
      <defs>
       <path d="M 37.796875 64.3125 
L 12.890625 25.390625 
L 37.796875 25.390625 
z
M 35.203125 72.90625 
L 47.609375 72.90625 
L 47.609375 25.390625 
L 58.015625 25.390625 
L 58.015625 17.1875 
L 47.609375 17.1875 
L 47.609375 0 
L 37.796875 0 
L 37.796875 17.1875 
L 4.890625 17.1875 
L 4.890625 26.703125 
z
" id="DejaVuSans-52"/>
      </defs>
      <g transform="translate(208.37867 329.598438)scale(0.1 -0.1)">
       <use xlink:href="#DejaVuSans-52"/>
       <use x="63.623047" xlink:href="#DejaVuSans-48"/>
       <use x="127.246094" xlink:href="#DejaVuSans-48"/>
      </g>
     </g>
    </g>
    <g id="xtick_4">
     <g id="line2d_13">
      <path clip-path="url(#pfae80223fc)" d="M 161.954817 315 
L 161.954817 185.008696 
" style="fill:none;stroke:#b0b0b0;stroke-linecap:square;stroke-width:0.8;"/>
     </g>
     <g id="line2d_14">
      <g>
       <use style="stroke:#000000;stroke-width:0.8;" x="161.954817" xlink:href="#m11ac5a6470" y="315"/>
      </g>
     </g>
     <g id="text_10">
      <!-- 600 -->
      <defs>
       <path d="M 33.015625 40.375 
Q 26.375 40.375 22.484375 35.828125 
Q 18.609375 31.296875 18.609375 23.390625 
Q 18.609375 15.53125 22.484375 10.953125 
Q 26.375 6.390625 33.015625 6.390625 
Q 39.65625 6.390625 43.53125 10.953125 
Q 47.40625 15.53125 47.40625 23.390625 
Q 47.40625 31.296875 43.53125 35.828125 
Q 39.65625 40.375 33.015625 40.375 
z
M 52.59375 71.296875 
L 52.59375 62.3125 
Q 48.875 64.0625 45.09375 64.984375 
Q 41.3125 65.921875 37.59375 65.921875 
Q 27.828125 65.921875 22.671875 59.328125 
Q 17.53125 52.734375 16.796875 39.40625 
Q 19.671875 43.65625 24.015625 45.921875 
Q 28.375 48.1875 33.59375 48.1875 
Q 44.578125 48.1875 50.953125 41.515625 
Q 57.328125 34.859375 57.328125 23.390625 
Q 57.328125 12.15625 50.6875 5.359375 
Q 44.046875 -1.421875 33.015625 -1.421875 
Q 20.359375 -1.421875 13.671875 8.265625 
Q 6.984375 17.96875 6.984375 36.375 
Q 6.984375 53.65625 15.1875 63.9375 
Q 23.390625 74.21875 37.203125 74.21875 
Q 40.921875 74.21875 44.703125 73.484375 
Q 48.484375 72.75 52.59375 71.296875 
z
" id="DejaVuSans-54"/>
      </defs>
      <g transform="translate(152.411067 329.598438)scale(0.1 -0.1)">
       <use xlink:href="#DejaVuSans-54"/>
       <use x="63.623047" xlink:href="#DejaVuSans-48"/>
       <use x="127.246094" xlink:href="#DejaVuSans-48"/>
      </g>
     </g>
    </g>
   </g>
   <g id="patch_11">
    <path d="M 153 315 
L 329.857627 315 
" style="fill:none;stroke:#000000;stroke-linecap:square;stroke-linejoin:miter;stroke-width:0.8;"/>
   </g>
   <g id="text_11">
    <!-- 632 -->
    <g transform="translate(132.055495 303.484385)scale(0.1 -0.1)">
     <use xlink:href="#DejaVuSans-54"/>
     <use x="63.623047" xlink:href="#DejaVuSans-51"/>
     <use x="127.246094" xlink:href="#DejaVuSans-50"/>
    </g>
   </g>
   <g id="text_12">
    <!-- 631 -->
    <g transform="translate(132.335333 282.568648)scale(0.1 -0.1)">
     <use xlink:href="#DejaVuSans-54"/>
     <use x="63.623047" xlink:href="#DejaVuSans-51"/>
     <use x="127.246094" xlink:href="#DejaVuSans-49"/>
    </g>
   </g>
   <g id="text_13">
    <!-- 630 -->
    <g transform="translate(132.615171 261.652911)scale(0.1 -0.1)">
     <use xlink:href="#DejaVuSans-54"/>
     <use x="63.623047" xlink:href="#DejaVuSans-51"/>
     <use x="127.246094" xlink:href="#DejaVuSans-48"/>
    </g>
   </g>
   <g id="text_14">
    <!-- 622 -->
    <g transform="translate(134.853875 240.737174)scale(0.1 -0.1)">
     <use xlink:href="#DejaVuSans-54"/>
     <use x="63.623047" xlink:href="#DejaVuSans-50"/>
     <use x="127.246094" xlink:href="#DejaVuSans-50"/>
    </g>
   </g>
   <g id="text_15">
    <!-- 622 -->
    <g transform="translate(134.853875 219.821437)scale(0.1 -0.1)">
     <use xlink:href="#DejaVuSans-54"/>
     <use x="63.623047" xlink:href="#DejaVuSans-50"/>
     <use x="127.246094" xlink:href="#DejaVuSans-50"/>
    </g>
   </g>
   <g id="text_16">
    <!-- 621 -->
    <g transform="translate(135.133713 198.905701)scale(0.1 -0.1)">
     <use xlink:href="#DejaVuSans-54"/>
     <use x="63.623047" xlink:href="#DejaVuSans-50"/>
     <use x="127.246094" xlink:href="#DejaVuSans-49"/>
    </g>
   </g>
  </g>
  <g id="axes_4">
   <g id="patch_12">
    <path d="M 538.871186 173.191304 
L 1101.6 173.191304 
L 1101.6 43.2 
L 538.871186 43.2 
z
" style="fill:#ffffff;"/>
   </g>
   <g id="matplotlib.axis_5">
    <g id="ytick_13">
     <g id="line2d_15">
      <path clip-path="url(#pf6d7b2b6bb)" d="M 538.871186 173.191304 
L 1101.6 173.191304 
" style="fill:none;stroke:#b0b0b0;stroke-linecap:square;stroke-width:0.8;"/>
     </g>
     <g id="line2d_16">
      <defs>
       <path d="M 0 0 
L -3.5 0 
" id="mdd8458c779" style="stroke:#000000;stroke-width:0.8;"/>
      </defs>
      <g>
       <use style="stroke:#000000;stroke-width:0.8;" x="538.871186" xlink:href="#mdd8458c779" y="173.191304"/>
      </g>
     </g>
     <g id="text_17">
      <!-- 0 -->
      <g transform="translate(525.508686 176.990523)scale(0.1 -0.1)">
       <use xlink:href="#DejaVuSans-48"/>
      </g>
     </g>
    </g>
    <g id="ytick_14">
     <g id="line2d_17">
      <path clip-path="url(#pf6d7b2b6bb)" d="M 538.871186 133.190903 
L 1101.6 133.190903 
" style="fill:none;stroke:#b0b0b0;stroke-linecap:square;stroke-width:0.8;"/>
     </g>
     <g id="line2d_18">
      <g>
       <use style="stroke:#000000;stroke-width:0.8;" x="538.871186" xlink:href="#mdd8458c779" y="133.190903"/>
      </g>
     </g>
     <g id="text_18">
      <!-- 200 -->
      <g transform="translate(512.783686 136.990122)scale(0.1 -0.1)">
       <use xlink:href="#DejaVuSans-50"/>
       <use x="63.623047" xlink:href="#DejaVuSans-48"/>
       <use x="127.246094" xlink:href="#DejaVuSans-48"/>
      </g>
     </g>
    </g>
    <g id="ytick_15">
     <g id="line2d_19">
      <path clip-path="url(#pf6d7b2b6bb)" d="M 538.871186 93.190502 
L 1101.6 93.190502 
" style="fill:none;stroke:#b0b0b0;stroke-linecap:square;stroke-width:0.8;"/>
     </g>
     <g id="line2d_20">
      <g>
       <use style="stroke:#000000;stroke-width:0.8;" x="538.871186" xlink:href="#mdd8458c779" y="93.190502"/>
      </g>
     </g>
     <g id="text_19">
      <!-- 400 -->
      <g transform="translate(512.783686 96.98972)scale(0.1 -0.1)">
       <use xlink:href="#DejaVuSans-52"/>
       <use x="63.623047" xlink:href="#DejaVuSans-48"/>
       <use x="127.246094" xlink:href="#DejaVuSans-48"/>
      </g>
     </g>
    </g>
    <g id="ytick_16">
     <g id="line2d_21">
      <path clip-path="url(#pf6d7b2b6bb)" d="M 538.871186 53.1901 
L 1101.6 53.1901 
" style="fill:none;stroke:#b0b0b0;stroke-linecap:square;stroke-width:0.8;"/>
     </g>
     <g id="line2d_22">
      <g>
       <use style="stroke:#000000;stroke-width:0.8;" x="538.871186" xlink:href="#mdd8458c779" y="53.1901"/>
      </g>
     </g>
     <g id="text_20">
      <!-- 600 -->
      <g transform="translate(512.783686 56.989319)scale(0.1 -0.1)">
       <use xlink:href="#DejaVuSans-54"/>
       <use x="63.623047" xlink:href="#DejaVuSans-48"/>
       <use x="127.246094" xlink:href="#DejaVuSans-48"/>
      </g>
     </g>
    </g>
    <g id="text_21">
     <!-- Intersection size -->
     <defs>
      <path d="M 9.8125 72.90625 
L 19.671875 72.90625 
L 19.671875 0 
L 9.8125 0 
z
" id="DejaVuSans-73"/>
      <path d="M 54.890625 33.015625 
L 54.890625 0 
L 45.90625 0 
L 45.90625 32.71875 
Q 45.90625 40.484375 42.875 44.328125 
Q 39.84375 48.1875 33.796875 48.1875 
Q 26.515625 48.1875 22.3125 43.546875 
Q 18.109375 38.921875 18.109375 30.90625 
L 18.109375 0 
L 9.078125 0 
L 9.078125 54.6875 
L 18.109375 54.6875 
L 18.109375 46.1875 
Q 21.34375 51.125 25.703125 53.5625 
Q 30.078125 56 35.796875 56 
Q 45.21875 56 50.046875 50.171875 
Q 54.890625 44.34375 54.890625 33.015625 
z
" id="DejaVuSans-110"/>
      <path d="M 44.28125 53.078125 
L 44.28125 44.578125 
Q 40.484375 46.53125 36.375 47.5 
Q 32.28125 48.484375 27.875 48.484375 
Q 21.1875 48.484375 17.84375 46.4375 
Q 14.5 44.390625 14.5 40.28125 
Q 14.5 37.15625 16.890625 35.375 
Q 19.28125 33.59375 26.515625 31.984375 
L 29.59375 31.296875 
Q 39.15625 29.25 43.1875 25.515625 
Q 47.21875 21.78125 47.21875 15.09375 
Q 47.21875 7.46875 41.1875 3.015625 
Q 35.15625 -1.421875 24.609375 -1.421875 
Q 20.21875 -1.421875 15.453125 -0.5625 
Q 10.6875 0.296875 5.421875 2 
L 5.421875 11.28125 
Q 10.40625 8.6875 15.234375 7.390625 
Q 20.0625 6.109375 24.8125 6.109375 
Q 31.15625 6.109375 34.5625 8.28125 
Q 37.984375 10.453125 37.984375 14.40625 
Q 37.984375 18.0625 35.515625 20.015625 
Q 33.0625 21.96875 24.703125 23.78125 
L 21.578125 24.515625 
Q 13.234375 26.265625 9.515625 29.90625 
Q 5.8125 33.546875 5.8125 39.890625 
Q 5.8125 47.609375 11.28125 51.796875 
Q 16.75 56 26.8125 56 
Q 31.78125 56 36.171875 55.265625 
Q 40.578125 54.546875 44.28125 53.078125 
z
" id="DejaVuSans-115"/>
      <path d="M 5.515625 54.6875 
L 48.1875 54.6875 
L 48.1875 46.484375 
L 14.40625 7.171875 
L 48.1875 7.171875 
L 48.1875 0 
L 4.296875 0 
L 4.296875 8.203125 
L 38.09375 47.515625 
L 5.515625 47.515625 
z
" id="DejaVuSans-122"/>
     </defs>
     <g transform="translate(506.703999 149.222996)rotate(-90)scale(0.1 -0.1)">
      <use xlink:href="#DejaVuSans-73"/>
      <use x="29.492188" xlink:href="#DejaVuSans-110"/>
      <use x="92.871094" xlink:href="#DejaVuSans-116"/>
      <use x="132.080078" xlink:href="#DejaVuSans-101"/>
      <use x="193.603516" xlink:href="#DejaVuSans-114"/>
      <use x="234.716797" xlink:href="#DejaVuSans-115"/>
      <use x="286.816406" xlink:href="#DejaVuSans-101"/>
      <use x="348.339844" xlink:href="#DejaVuSans-99"/>
      <use x="403.320312" xlink:href="#DejaVuSans-116"/>
      <use x="442.529297" xlink:href="#DejaVuSans-105"/>
      <use x="470.3125" xlink:href="#DejaVuSans-111"/>
      <use x="531.494141" xlink:href="#DejaVuSans-110"/>
      <use x="594.873047" xlink:href="#DejaVuSans-32"/>
      <use x="626.660156" xlink:href="#DejaVuSans-115"/>
      <use x="678.759766" xlink:href="#DejaVuSans-105"/>
      <use x="706.542969" xlink:href="#DejaVuSans-122"/>
      <use x="759.033203" xlink:href="#DejaVuSans-101"/>
     </g>
    </g>
   </g>
   <g id="patch_13">
    <path d="M 538.871186 173.191304 
L 538.871186 43.2 
" style="fill:none;stroke:#000000;stroke-linecap:square;stroke-linejoin:miter;stroke-width:0.8;"/>
   </g>
   <g id="text_22">
    <!-- 1 -->
    <g transform="translate(582.584004 169.611702)scale(0.1 -0.1)">
     <use xlink:href="#DejaVuSans-49"/>
    </g>
   </g>
   <g id="text_23">
    <!-- 10 -->
    <g transform="translate(673.19089 167.811684)scale(0.1 -0.1)">
     <use xlink:href="#DejaVuSans-49"/>
     <use x="63.623047" xlink:href="#DejaVuSans-48"/>
    </g>
   </g>
   <g id="text_24">
    <!-- 1 -->
    <g transform="translate(770.160275 169.611702)scale(0.1 -0.1)">
     <use xlink:href="#DejaVuSans-49"/>
    </g>
   </g>
   <g id="text_25">
    <!-- 1 -->
    <g transform="translate(863.948411 169.611702)scale(0.1 -0.1)">
     <use xlink:href="#DejaVuSans-49"/>
    </g>
   </g>
   <g id="text_26">
    <!-- 1 -->
    <g transform="translate(957.736547 169.611702)scale(0.1 -0.1)">
     <use xlink:href="#DejaVuSans-49"/>
    </g>
   </g>
   <g id="text_27">
    <!-- 619 -->
    <defs>
     <path d="M 10.984375 1.515625 
L 10.984375 10.5 
Q 14.703125 8.734375 18.5 7.8125 
Q 22.3125 6.890625 25.984375 6.890625 
Q 35.75 6.890625 40.890625 13.453125 
Q 46.046875 20.015625 46.78125 33.40625 
Q 43.953125 29.203125 39.59375 26.953125 
Q 35.25 24.703125 29.984375 24.703125 
Q 19.046875 24.703125 12.671875 31.3125 
Q 6.296875 37.9375 6.296875 49.421875 
Q 6.296875 60.640625 12.9375 67.421875 
Q 19.578125 74.21875 30.609375 74.21875 
Q 43.265625 74.21875 49.921875 64.515625 
Q 56.59375 54.828125 56.59375 36.375 
Q 56.59375 19.140625 48.40625 8.859375 
Q 40.234375 -1.421875 26.421875 -1.421875 
Q 22.703125 -1.421875 18.890625 -0.6875 
Q 15.09375 0.046875 10.984375 1.515625 
z
M 30.609375 32.421875 
Q 37.25 32.421875 41.125 36.953125 
Q 45.015625 41.5 45.015625 49.421875 
Q 45.015625 57.28125 41.125 61.84375 
Q 37.25 66.40625 30.609375 66.40625 
Q 23.96875 66.40625 20.09375 61.84375 
Q 16.21875 57.28125 16.21875 49.421875 
Q 16.21875 41.5 20.09375 36.953125 
Q 23.96875 32.421875 30.609375 32.421875 
z
" id="DejaVuSans-57"/>
    </defs>
    <g transform="translate(1045.162182 46.010462)scale(0.1 -0.1)">
     <use xlink:href="#DejaVuSans-54"/>
     <use x="63.623047" xlink:href="#DejaVuSans-49"/>
     <use x="127.246094" xlink:href="#DejaVuSans-57"/>
    </g>
   </g>
   <g id="text_28">
    <!-- Enhancer Barcode Presence Across Replicates -->
    <defs>
     <path d="M 19.671875 34.8125 
L 19.671875 8.109375 
L 35.5 8.109375 
Q 43.453125 8.109375 47.28125 11.40625 
Q 51.125 14.703125 51.125 21.484375 
Q 51.125 28.328125 47.28125 31.5625 
Q 43.453125 34.8125 35.5 34.8125 
z
M 19.671875 64.796875 
L 19.671875 42.828125 
L 34.28125 42.828125 
Q 41.5 42.828125 45.03125 45.53125 
Q 48.578125 48.25 48.578125 53.8125 
Q 48.578125 59.328125 45.03125 62.0625 
Q 41.5 64.796875 34.28125 64.796875 
z
M 9.8125 72.90625 
L 35.015625 72.90625 
Q 46.296875 72.90625 52.390625 68.21875 
Q 58.5 63.53125 58.5 54.890625 
Q 58.5 48.1875 55.375 44.234375 
Q 52.25 40.28125 46.1875 39.3125 
Q 53.46875 37.75 57.5 32.78125 
Q 61.53125 27.828125 61.53125 20.40625 
Q 61.53125 10.640625 54.890625 5.3125 
Q 48.25 0 35.984375 0 
L 9.8125 0 
z
" id="DejaVuSans-66"/>
     <path d="M 45.40625 46.390625 
L 45.40625 75.984375 
L 54.390625 75.984375 
L 54.390625 0 
L 45.40625 0 
L 45.40625 8.203125 
Q 42.578125 3.328125 38.25 0.953125 
Q 33.9375 -1.421875 27.875 -1.421875 
Q 17.96875 -1.421875 11.734375 6.484375 
Q 5.515625 14.40625 5.515625 27.296875 
Q 5.515625 40.1875 11.734375 48.09375 
Q 17.96875 56 27.875 56 
Q 33.9375 56 38.25 53.625 
Q 42.578125 51.265625 45.40625 46.390625 
z
M 14.796875 27.296875 
Q 14.796875 17.390625 18.875 11.75 
Q 22.953125 6.109375 30.078125 6.109375 
Q 37.203125 6.109375 41.296875 11.75 
Q 45.40625 17.390625 45.40625 27.296875 
Q 45.40625 37.203125 41.296875 42.84375 
Q 37.203125 48.484375 30.078125 48.484375 
Q 22.953125 48.484375 18.875 42.84375 
Q 14.796875 37.203125 14.796875 27.296875 
z
" id="DejaVuSans-100"/>
     <path d="M 19.671875 64.796875 
L 19.671875 37.40625 
L 32.078125 37.40625 
Q 38.96875 37.40625 42.71875 40.96875 
Q 46.484375 44.53125 46.484375 51.125 
Q 46.484375 57.671875 42.71875 61.234375 
Q 38.96875 64.796875 32.078125 64.796875 
z
M 9.8125 72.90625 
L 32.078125 72.90625 
Q 44.34375 72.90625 50.609375 67.359375 
Q 56.890625 61.8125 56.890625 51.125 
Q 56.890625 40.328125 50.609375 34.8125 
Q 44.34375 29.296875 32.078125 29.296875 
L 19.671875 29.296875 
L 19.671875 0 
L 9.8125 0 
z
" id="DejaVuSans-80"/>
    </defs>
    <g transform="translate(682.099656 37.2)scale(0.12 -0.12)">
     <use xlink:href="#DejaVuSans-69"/>
     <use x="63.183594" xlink:href="#DejaVuSans-110"/>
     <use x="126.5625" xlink:href="#DejaVuSans-104"/>
     <use x="189.941406" xlink:href="#DejaVuSans-97"/>
     <use x="251.220703" xlink:href="#DejaVuSans-110"/>
     <use x="314.599609" xlink:href="#DejaVuSans-99"/>
     <use x="369.580078" xlink:href="#DejaVuSans-101"/>
     <use x="431.103516" xlink:href="#DejaVuSans-114"/>
     <use x="472.216797" xlink:href="#DejaVuSans-32"/>
     <use x="504.003906" xlink:href="#DejaVuSans-66"/>
     <use x="572.607422" xlink:href="#DejaVuSans-97"/>
     <use x="633.886719" xlink:href="#DejaVuSans-114"/>
     <use x="672.75" xlink:href="#DejaVuSans-99"/>
     <use x="727.730469" xlink:href="#DejaVuSans-111"/>
     <use x="788.912109" xlink:href="#DejaVuSans-100"/>
     <use x="852.388672" xlink:href="#DejaVuSans-101"/>
     <use x="913.912109" xlink:href="#DejaVuSans-32"/>
     <use x="945.699219" xlink:href="#DejaVuSans-80"/>
     <use x="1004.251953" xlink:href="#DejaVuSans-114"/>
     <use x="1043.115234" xlink:href="#DejaVuSans-101"/>
     <use x="1104.638672" xlink:href="#DejaVuSans-115"/>
     <use x="1156.738281" xlink:href="#DejaVuSans-101"/>
     <use x="1218.261719" xlink:href="#DejaVuSans-110"/>
     <use x="1281.640625" xlink:href="#DejaVuSans-99"/>
     <use x="1336.621094" xlink:href="#DejaVuSans-101"/>
     <use x="1398.144531" xlink:href="#DejaVuSans-32"/>
     <use x="1429.931641" xlink:href="#DejaVuSans-65"/>
     <use x="1496.589844" xlink:href="#DejaVuSans-99"/>
     <use x="1551.570312" xlink:href="#DejaVuSans-114"/>
     <use x="1590.433594" xlink:href="#DejaVuSans-111"/>
     <use x="1651.615234" xlink:href="#DejaVuSans-115"/>
     <use x="1703.714844" xlink:href="#DejaVuSans-115"/>
     <use x="1755.814453" xlink:href="#DejaVuSans-32"/>
     <use x="1787.601562" xlink:href="#DejaVuSans-82"/>
     <use x="1852.583984" xlink:href="#DejaVuSans-101"/>
     <use x="1914.107422" xlink:href="#DejaVuSans-112"/>
     <use x="1977.583984" xlink:href="#DejaVuSans-108"/>
     <use x="2005.367188" xlink:href="#DejaVuSans-105"/>
     <use x="2033.150391" xlink:href="#DejaVuSans-99"/>
     <use x="2088.130859" xlink:href="#DejaVuSans-97"/>
     <use x="2149.410156" xlink:href="#DejaVuSans-116"/>
     <use x="2188.619141" xlink:href="#DejaVuSans-101"/>
     <use x="2250.142578" xlink:href="#DejaVuSans-115"/>
    </g>
   </g>
   <g id="patch_14">
    <path clip-path="url(#pf6d7b2b6bb)" d="M 562.31822 173.191304 
L 609.212288 173.191304 
L 609.212288 172.991302 
L 562.31822 172.991302 
z
" style="stroke:#000000;stroke-linejoin:miter;"/>
   </g>
   <g id="patch_15">
    <path clip-path="url(#pf6d7b2b6bb)" d="M 656.106356 173.191304 
L 703.000424 173.191304 
L 703.000424 171.191284 
L 656.106356 171.191284 
z
" style="stroke:#000000;stroke-linejoin:miter;"/>
   </g>
   <g id="patch_16">
    <path clip-path="url(#pf6d7b2b6bb)" d="M 749.894492 173.191304 
L 796.788559 173.191304 
L 796.788559 172.991302 
L 749.894492 172.991302 
z
" style="stroke:#000000;stroke-linejoin:miter;"/>
   </g>
   <g id="patch_17">
    <path clip-path="url(#pf6d7b2b6bb)" d="M 843.682627 173.191304 
L 890.576695 173.191304 
L 890.576695 172.991302 
L 843.682627 172.991302 
z
" style="stroke:#000000;stroke-linejoin:miter;"/>
   </g>
   <g id="patch_18">
    <path clip-path="url(#pf6d7b2b6bb)" d="M 937.470763 173.191304 
L 984.364831 173.191304 
L 984.364831 172.991302 
L 937.470763 172.991302 
z
" style="stroke:#000000;stroke-linejoin:miter;"/>
   </g>
   <g id="patch_19">
    <path clip-path="url(#pf6d7b2b6bb)" d="M 1031.258898 173.191304 
L 1078.152966 173.191304 
L 1078.152966 49.390062 
L 1031.258898 49.390062 
z
" style="stroke:#000000;stroke-linejoin:miter;"/>
   </g>
  </g>
 </g>
 <defs>
  <clipPath id="pbee2da3100">
   <rect height="129.991304" width="948.6" x="153" y="185.008696"/>
  </clipPath>
  <clipPath id="p0644304c1a">
   <rect height="129.991304" width="562.728814" x="538.871186" y="185.008696"/>
  </clipPath>
  <clipPath id="pfae80223fc">
   <rect height="129.991304" width="176.857627" x="153" y="185.008696"/>
  </clipPath>
  <clipPath id="pf6d7b2b6bb">
   <rect height="129.991304" width="562.728814" x="538.871186" y="43.2"/>
  </clipPath>
 </defs>
</svg>
